<svg xmlns="http://www.w3.org/2000/svg" viewBox="0 0 64 64" width="64" height="64">
  <rect width="64" height="64" rx="14" fill="#2D6A4F"/>
  <path d="M22 22c-2 4 0 9 4 11l3-2c-3-2-5-5-4-8 1-3 4-4 6-3l2-3c-4-2-9-1-11 5Zm15-3 2 3c2-1 5 0 6 3 1 3-1 6-4 8l3 2c4-2 6-7 4-11-2-6-7-7-11-5Z" fill="#FFD4A3"/>
  <circle cx="32" cy="36" r="8" fill="#FFFBF5"/>
  <circle cx="29" cy="34" r="1.5" fill="#1B4332"/>
  <circle cx="35" cy="34" r="1.5" fill="#1B4332"/>
  <path d="M32 38v3" stroke="#1B4332" stroke-width="1.5" stroke-linecap="round"/>
  <path d="M30 41q2 1 4 0" stroke="#1B4332" stroke-width="1.5" stroke-linecap="round" fill="none"/>
</svg>
