<svg xmlns="http://www.w3.org/2000/svg" viewBox="0 0 1200 630" width="1200" height="630">
  <defs>
    <linearGradient id="bg" x1="0" y1="0" x2="1" y2="1">
      <stop offset="0%" stop-color="#1B4332"/>
      <stop offset="60%" stop-color="#2D6A4F"/>
      <stop offset="100%" stop-color="#40916C"/>
    </linearGradient>
    <radialGradient id="glow" cx="0.85" cy="0.15" r="0.6">
      <stop offset="0%" stop-color="#FFD4A3" stop-opacity="0.45"/>
      <stop offset="100%" stop-color="#FFD4A3" stop-opacity="0"/>
    </radialGradient>
  </defs>
  <rect width="1200" height="630" fill="url(#bg)"/>
  <rect width="1200" height="630" fill="url(#glow)"/>
  <g transform="translate(80,80)">
    <rect width="92" height="92" rx="22" fill="#FFFBF5"/>
    <path d="M30 32c-3 6 0 14 6 17l5-3c-5-3-7-8-6-12 2-4 6-6 10-4l3-5c-7-3-15-2-18 7Zm22-5 3 5c4-2 8 0 10 4 1 4-1 9-6 12l5 3c6-3 9-11 6-17-3-9-11-10-18-7Z" fill="#2D6A4F"/>
    <circle cx="46" cy="55" r="13" fill="#2D6A4F"/>
    <circle cx="42" cy="52" r="2" fill="#FFFBF5"/>
    <circle cx="50" cy="52" r="2" fill="#FFFBF5"/>
    <path d="M46 58v5" stroke="#FFFBF5" stroke-width="2" stroke-linecap="round"/>
  </g>
  <text x="80" y="320" font-family="system-ui,Inter,sans-serif" font-size="96" font-weight="800" fill="#FFFBF5" letter-spacing="-3">Petwelly</text>
  <text x="80" y="400" font-family="system-ui,Inter,sans-serif" font-size="44" font-weight="600" fill="#FFD4A3" letter-spacing="-1">El ERP que tus perros merecen</text>
  <text x="80" y="540" font-family="system-ui,Inter,sans-serif" font-size="26" font-weight="500" fill="#FFFBF5" opacity="0.85">Salud · Camadas · Ventas · Portal del cliente · Finanzas</text>
  <text x="80" y="580" font-family="system-ui,Inter,sans-serif" font-size="22" font-weight="500" fill="#FFFBF5" opacity="0.65">petwelly.com</text>
</svg>
