<svg xmlns="http://www.w3.org/2000/svg" viewBox="0 0 180 180" width="180" height="180">
  <rect width="180" height="180" rx="36" fill="#2D6A4F"/>
  <path d="M62 62c-6 11 0 25 11 31l8-5c-8-6-13-14-11-22 3-9 11-12 17-9l5-8c-12-6-25-3-30 13Zm42-9 5 8c6-3 14 0 17 9 2 8-3 16-11 22l8 5c11-6 17-20 11-31-6-16-19-19-30-13Z" fill="#FFD4A3"/>
  <circle cx="90" cy="100" r="22" fill="#FFFBF5"/>
  <circle cx="82" cy="96" r="4" fill="#1B4332"/>
  <circle cx="98" cy="96" r="4" fill="#1B4332"/>
  <path d="M90 105v8" stroke="#1B4332" stroke-width="3" stroke-linecap="round"/>
  <path d="M85 113q5 3 10 0" stroke="#1B4332" stroke-width="3" stroke-linecap="round" fill="none"/>
</svg>
